<?xml version="1.0" ?><svg xmlns="http://www.w3.org/2000/svg" xmlns:xlink="http://www.w3.org/1999/xlink" id="Layer_1" style="enable-background:new 0 0 81.722427 80.778908;" version="1.1" viewBox="0 0 81.722427 80.778908" xml:space="preserve"><style type="text/css">
	.st0{opacity:0.5;fill:#231F20;enable-background:new    ;}
	.st1{fill:#FFFFFF;}
	.st2{fill:#22093A;stroke:#22093A;stroke-linecap:round;stroke-linejoin:round;}
	.st3{fill:#9736FF;stroke:#22093A;stroke-linecap:round;stroke-linejoin:round;}
	.st4{fill:#FCC707;stroke:#22093A;stroke-linecap:round;stroke-linejoin:round;}
	.st5{fill:none;stroke:#22093A;stroke-linecap:round;stroke-linejoin:round;}
	.st6{fill:none;stroke:#FFFFFF;stroke-linecap:round;stroke-linejoin:round;}
	.st7{fill:none;stroke:#D9BBFF;stroke-linecap:round;stroke-linejoin:round;}
</style><g id="Layer_2_00000150807569039479269840000011813566022585435063_"><g id="Layer_1-2"><path class="st0" d="M81.595863,30.37413c-0.316002-1.203371-1.171326-2.192648-2.316414-2.679199l-1.844727-0.779301    l-9.792-4.601561l-0.084999-12.22315c0.000435-0.326293-0.043922-0.651102-0.131828-0.96533    c-0.073929-0.308466-0.183731-0.607213-0.327148-0.89014c-0.142075-0.267292-0.315857-0.516482-0.517578-0.74218    c-0.049812-0.05909-0.101562-0.11768-0.155273-0.17481c-0.172279-0.191739-0.367424-0.361627-0.581062-0.50586    c-0.247452-0.169137-0.513924-0.3086-0.793938-0.41552c-0.285896-0.117433-0.583946-0.202756-0.88868-0.2544    c-0.287838-0.044537-0.580044-0.053718-0.87011-0.02734c-0.301632,0.015732-0.600464,0.066028-0.890629,0.1499L49.896641,10.04258    c-0.376751-0.668621-0.824322-1.294779-1.334999-1.86767c-0.547848-0.616906-1.174675-1.158854-1.864262-1.61182    c-1.456322-1.178424-3.277069-1.813822-5.150379-1.797359L37.12125,1.03379c-0.955822-0.812081-2.239735-1.123576-3.46143-0.83979    c-1.22263,0.280612-2.244205,1.115826-2.762199,2.2583L25.74283,13.90147L14.717,13.21055    c-2.205736-0.1284-4.097927,1.555614-4.226327,3.761351c-0.03803,0.653305,0.084785,1.305964,0.357677,1.900759l3.25146,7.078609    L3.529,30.81846c-0.299616,0.137545-0.579183,0.315107-0.83105,0.52783c-0.204376,0.160326-0.392461,0.340395-0.56153,0.5376    c-0.209653,0.250673-0.385774,0.527575-0.52392,0.823729c-0.084238,0.166428-0.156683,0.338562-0.2168,0.515141l-0.001-0.000488    c-0.02247,0.066898-0.04249,0.134281-0.06055,0.202148L1.32292,33.46788L1.3195,33.479591    c-0.02393,0.095711-0.04443,0.192879-0.06055,0.291h0.00049c-0.00586,0.03809-0.01123,0.077641-0.01611,0.117191    c-0.00733,0.055168-0.0127,0.110352-0.01709,0.166c-0.013997,0.163994-0.018561,0.328655-0.01367,0.493172    c0.001847,0.282242,0.034925,0.563412,0.09863,0.838379c0.145312,0.550926,0.394573,1.069004,0.73437,1.52636H2.04508    c0.02587,0.033699,0.064,0.081059,0.0913,0.11377l6.82471,8.235348l-5.0332,8.92289    c-0.13565,0.248428-0.243873,0.510876-0.32276,0.782711c-0.083371,0.264446-0.139661,0.536674-0.168,0.8125    c-0.026205,0.28833-0.018341,0.578747,0.02343,0.865238c0.029102,0.258747,0.084067,0.513927,0.16407,0.761711    c0.00976,0.029331,0.020014,0.058632,0.03076,0.087898c0.01513,0.043449,0.03174,0.08691,0.04883,0.129879    c0.107878,0.270794,0.2484,0.527412,0.41845,0.76416c0.150456,0.227962,0.325507,0.438702,0.522,0.628422    c0.190929,0.179108,0.398582,0.339508,0.62011,0.479c0.244545,0.162262,0.50662,0.29641,0.78125,0.399899l7.47754,2.730469    v8.790001l-0.06541,2.234413c-0.060063,2.208382,1.681494,4.047325,3.889877,4.107384    c0.474792,0.012917,0.94809-0.05883,1.397722-0.211884l13.471678-4.586418l10.499561,7.127449    c1.826946,1.242317,4.315071,0.768379,5.557388-1.058563c0.131718-0.193703,0.246166-0.398605,0.34203-0.612335l3.170891-7.070801    l7.375999,2.620598c2.07457,0.758148,4.370945-0.309021,5.129097-2.383591c0.160789-0.439987,0.243027-0.904793,0.242973-1.373238    V63.63047h10.856384c2.209198-0.000027,4.000092-1.790958,4.000061-4.000156    c-0.000008-0.674728-0.170685-1.33849-0.496162-1.929523l-0.060539-0.111328    c-0.073807-0.216743-0.166275-0.426678-0.276367-0.627441L72.046997,45.13731l8.822296-11.287109    C81.637375,32.866852,81.905769,31.5828,81.595863,30.37413z"/><path class="st1" d="M80.385223,30.288c-0.31601-1.203367-1.171326-2.192644-2.316406-2.679199l-1.844719-0.779289l-9.792-4.60157    l-0.084999-12.22314c0.000435-0.326293-0.043915-0.651102-0.131828-0.96533    c-0.073929-0.308466-0.183723-0.607214-0.327148-0.89014c-0.142082-0.267293-0.315857-0.516487-0.517578-0.74219    c-0.049797-0.05908-0.101562-0.11767-0.155273-0.1748c-0.172279-0.191741-0.367424-0.361629-0.581062-0.50586    c-0.247452-0.16914-0.513924-0.308608-0.793941-0.41553c-0.285896-0.117428-0.583946-0.202748-0.888672-0.25439    c-0.287842-0.04454-0.580051-0.053725-0.870121-0.02735c-0.301632,0.015737-0.600464,0.066032-0.890629,0.1499L48.686001,9.95644    c-0.376751-0.668624-0.824322-1.294785-1.334999-1.86768C46.803165,7.471875,46.17635,6.929947,45.486778,6.477    c-1.456326-1.178431-3.277077-1.813832-5.150391-1.79737L35.91061,0.94765c-0.955811-0.812104-2.239727-1.123619-3.46143-0.83984    c-1.222631,0.280605-2.244213,1.115821-2.762199,2.2583L24.53219,13.81533l-11.02588-0.69092    c-2.20573-0.128408-4.097923,1.555593-4.226332,3.761323c-0.038033,0.653315,0.084783,1.305983,0.357682,1.900787    l3.251471,7.078609L2.31832,30.732321c-0.299601,0.137543-0.579152,0.315105-0.831,0.52783    c-0.204378,0.16032-0.39246,0.340389-0.56152,0.5376c-0.209655,0.250673-0.385779,0.527575-0.52393,0.823729    c-0.084238,0.166424-0.156683,0.338554-0.2168,0.515129l-0.001-0.000481c-0.02246,0.066891-0.04248,0.13427-0.06055,0.202141    l-0.01123,0.043461l-0.00342,0.011719c-0.02392,0.095699-0.04443,0.192871-0.06054,0.291h0.00046    c-0.00586,0.038078-0.01123,0.077629-0.01611,0.11718c-0.00732,0.05518-0.01269,0.110352-0.01709,0.166    c-0.013992,0.16399-0.018556,0.328648-0.01367,0.49316c0.001847,0.282242,0.034925,0.563412,0.09863,0.838379    c0.084236,0.35078,0.218262,0.687698,0.398,1.000488c0.097334,0.184338,0.209867,0.360241,0.33643,0.525879H0.83444    c0.02588,0.033691,0.064,0.081001,0.09131,0.11377l6.8247,8.235348l-5.0332,8.922852    c-0.135645,0.248432-0.243865,0.510883-0.32275,0.782719c-0.083376,0.264442-0.139665,0.536674-0.168,0.8125    C2.200307,55.981068,2.208195,56.2715,2.25,56.557999c0.029093,0.258751,0.084054,0.513935,0.16406,0.761719    c0.00976,0.029331,0.020013,0.058628,0.03076,0.087891c0.01514,0.043461,0.03174,0.08691,0.04883,0.129879    c0.10788,0.270794,0.248402,0.527409,0.41845,0.76416c0.150457,0.227962,0.325508,0.438698,0.522,0.628422    c0.19093,0.179108,0.398582,0.339504,0.62011,0.479c0.24455,0.162254,0.506623,0.296402,0.78125,0.399899l7.47754,2.730484    v8.790001l-0.06543,2.234367c-0.060068,2.208382,1.681486,4.047325,3.88987,4.107391    c0.474794,0.012917,0.948093-0.05883,1.39773-0.211884L31.0068,72.87294l10.49951,7.127441    c1.826935,1.242325,4.315056,0.768402,5.557381-1.058533c0.131721-0.19371,0.246178-0.398621,0.342041-0.612358l3.170898-7.070808    l7.375999,2.620613c2.074577,0.758141,4.370956-0.309036,5.129097-2.383621c0.160789-0.43998,0.243031-0.904785,0.242973-1.373222    v-6.578121h10.856422c2.209198-0.000023,4.000092-1.790951,4.000069-4.000153    c-0.000008-0.674732-0.170692-1.338501-0.49617-1.929539l-0.060539-0.111328    c-0.073807-0.216747-0.166275-0.426682-0.276367-0.627441L70.836395,45.05117l8.822273-11.287109    C80.426735,32.780708,80.695122,31.496664,80.385223,30.288z"/><polygon class="st2" points="18.535999,28.562 13.616,17.853001 27.386999,18.715 33.678001,4.743 46.57,15.613 62.352001,10.004     62.459,25.353001 76.517998,31.289 66.025002,44.715 74.186996,59.540001 59.330002,59.540001 59.330002,70.117996     48.442001,66.249001 43.762001,76.689003 31.608999,68.440002 16.250999,73.667999 16.656,59.862 6.212,56.047001     13.041,45.279999 3.994,34.362999   "/><polygon class="st3" points="18.198,27.823 13.278,17.113001 27.049,17.976 33.34,4.004 46.231998,14.874 62.352001,10.004     62.120998,24.614 75.795998,31.042 65.685997,43.976002 73.848,58.800999 58.992001,58.800999 58.992001,69.378998     48.104,65.510002 43.423,75.949997 31.271,67.700996 16.318001,73.158997 16.318001,59.122002 6.212,56.047001 12.703,44.541     3.994,34.362999   "/><path class="st2" d="M57.538551,46.601631c0.788609,0.40884,1.429562,3.398262,0.914902,5.246811    c-2.18169,7.83614-10.629898,7.222881-10.629898,7.222881s-4.25441,4.342091-12.4697,3.407001    c-8.38126-0.953999-14.036919-4.565411-15.49152-14.377621c-1.65728-11.179401,8.13236-17.784639,10.721699-20.30584    s3.270741-4.497271,3.543301-9.40337s2.657471-9.2671,6.950321-9.2671c2.861889,0,6.01746,3.407001,5.246811,10.221061    c-0.268745,3.341358-1.395325,6.556801-3.270741,9.335239c0,0,8.82048-2.561609,12.529491,0.81768    c1.444717,1.454592,2.162148,3.479698,1.955341,5.519371c1.906067,1.537827,2.967285,3.890392,2.858589,6.337059    C60.445744,43.487801,59.357124,45.485912,57.538551,46.601631z"/><path class="st2" d="M57.538551,35.017761c0,3.0592-2.928242,6.503078-9.510582,7.699871    c-5.996361,1.09024-10.10284-0.32579-10.10284-4.224709c0-5.723789,8.603748-5.723789,8.603748-5.723789"/><path class="st2" d="M57.538551,46.601631c0,0-5.414001,2.067089-8.64706,3.405491    c-7.410671,3.067841-11.834129-3.269211-5.90591-6.933559"/><path class="st2" d="M51.72966,49.091911c-1.664429,0.758179-6.511879,1.320782-7.384109,4.390999    c-0.55772,2.459896,0.984299,4.906158,3.444195,5.463879c0.436455,0.098953,0.885086,0.133221,1.331505,0.1017"/><path class="st4" d="M56.918301,46.151711c0.788609,0.40884,1.429562,3.398262,0.914902,5.246811    c-2.18169,7.83614-10.629902,7.222881-10.629902,7.222881s-4.254421,4.342091-12.4697,3.407001    c-8.38126-0.953999-14.036919-4.565411-15.49152-14.377621c-1.65728-11.179382,8.132359-17.784634,10.721699-20.305784    s3.270741-4.497271,3.543301-9.40337s2.657471-9.2671,6.950321-9.2671c2.861889,0,6.01746,3.407001,5.246811,10.221059    c-0.268745,3.341356-1.395321,6.556795-3.270741,9.33523c0,0,8.820469-2.5616,12.529491,0.81769    c1.444717,1.454592,2.162148,3.479698,1.955341,5.519371c1.906067,1.537827,2.967285,3.890392,2.858589,6.337059    C59.82547,43.03791,58.736855,45.036003,56.918301,46.151711z"/><path class="st4" d="M56.918301,34.567841c0,3.0592-2.928242,6.503071-9.510578,7.69986    c-5.996361,1.090248-10.10284-0.325779-10.10284-4.224701c0-5.723789,8.603748-5.723789,8.603748-5.723789"/><path class="st5" d="M56.918301,46.151711c0,0-5.414001,2.067089-8.64706,3.405491    c-7.410671,3.067799-11.834129-3.269203-5.90591-6.933563"/><path class="st5" d="M52.57436,47.834209c-1.664429,0.758179-7.97683,2.128559-8.84906,5.198769    c-0.55772,2.459896,0.984299,4.906158,3.444195,5.463879c0.436455,0.098953,0.885086,0.133221,1.331505,0.1017"/><path class="st6" d="M34.116779,25.89945c-0.40308,0.674734-0.912582,1.279873-1.508789,1.792"/><path class="st6" d="M37.925129,11.80773c-2.021999,2.38836-2.526001,7.054621-2.639931,10.24449"/><path class="st6" d="M50.145691,38.98225c0.500721-0.287521,0.84515-0.55518,1.19413-0.764568"/><path class="st6" d="M39.415779,38.620331c0.196869,0.9072,3.60759,2.331532,7.082272,1.619499    c0.732658-0.144043,1.454426-0.338802,2.160091-0.58287"/><path class="st6" d="M43.130138,47.600689c1.758362,0.51265,5.521999-0.695999,6.545238-1.430271"/><path class="st6" d="M46.043468,54.472279c0,0.992378,0.72934,1.805,2.61467,1.98476"/><path class="st5" d="M23.151779,51.204578c0.707302,2.789707,2.54571,5.158195,5.072762,6.535423"/><line class="st5" x1="19.05434" x2="24.73856" y1="69.695778" y2="67.744431"/><line class="st5" x1="26.66815" x2="27.508341" y1="67.011047" y2="66.740479"/><line class="st5" x1="69.373871" x2="67.072777" y1="55.51688" y2="51.64175"/><line class="st5" x1="66.163979" x2="65.85569" y1="50.040569" y2="49.5364"/><line class="st7" x1="18.77136" x2="20.805071" y1="22.46701" y2="25.947901"/><line class="st7" x1="17.30361" x2="17.918631" y1="19.95484" y2="21.00749"/><line class="st7" x1="50.607841" x2="58.580921" y1="15.90899" y2="13.63051"/><line class="st7" x1="7.68538" x2="8.76934" y1="34.911282" y2="34.459621"/><line class="st7" x1="69.089287" x2="63.238682" y1="30.931049" y2="28.146549"/></g></g></svg>